<svg xmlns="http://www.w3.org/2000/svg" xmlns:xlink="http://www.w3.org/1999/xlink" width="500" zoomAndPan="magnify" viewBox="0 0 375 374.999991" height="500" preserveAspectRatio="xMidYMid meet" version="1.2"><defs><clipPath id="b9316fda1d"><path d="M 174 88 L 338 88 L 338 266 L 174 266 Z M 174 88 "/></clipPath><clipPath id="222daf982a"><path d="M 242.578125 88.964844 L 337.777344 141.535156 L 269.257812 265.625 L 174.054688 213.054688 Z M 242.578125 88.964844 "/></clipPath><clipPath id="3b3b2841df"><path d="M 76 50 L 127 50 L 127 168 L 76 168 Z M 76 50 "/></clipPath><clipPath id="5c861bf275"><path d="M 68.578125 0.964844 L 163.777344 53.535156 L 95.257812 177.625 L 0.0546875 125.054688 Z M 68.578125 0.964844 "/></clipPath><clipPath id="41ad96a673"><path d="M 163.492188 53.375 L 68.292969 0.808594 L -0.230469 124.894531 L 94.96875 177.464844 Z M 163.492188 53.375 "/></clipPath><clipPath id="a8cfbf64a7"><path d="M 114 54 L 124 54 L 124 74 L 114 74 Z M 114 54 "/></clipPath><clipPath id="c8b4e12e40"><path d="M 68.578125 0.964844 L 163.777344 53.535156 L 95.257812 177.625 L 0.0546875 125.054688 Z M 68.578125 0.964844 "/></clipPath><clipPath id="f3ec917a37"><path d="M 163.492188 53.375 L 68.292969 0.808594 L -0.230469 124.894531 L 94.96875 177.464844 Z M 163.492188 53.375 "/></clipPath><clipPath id="26e317e528"><path d="M 39 27 L 160 27 L 160 88 L 39 88 Z M 39 27 "/></clipPath><clipPath id="54d68b78c2"><path d="M 68.578125 0.964844 L 163.777344 53.535156 L 95.257812 177.625 L 0.0546875 125.054688 Z M 68.578125 0.964844 "/></clipPath><clipPath id="7be0b3062c"><path d="M 163.492188 53.375 L 68.292969 0.808594 L -0.230469 124.894531 L 94.96875 177.464844 Z M 163.492188 53.375 "/></clipPath><clipPath id="f26acff9ff"><rect x="0" width="164" y="0" height="178"/></clipPath><clipPath id="1a4d9bcafe"><path d="M 247 209 L 267 209 L 267 233 L 247 233 Z M 247 209 "/></clipPath><clipPath id="00fff286b6"><path d="M 254.109375 209.585938 L 266.109375 214.203125 L 259.207031 232.136719 L 247.207031 227.519531 Z M 254.109375 209.585938 "/></clipPath><clipPath id="d7a721197c"><path d="M 0.199219 0.519531 L 19.160156 0.519531 L 19.160156 23.320312 L 0.199219 23.320312 Z M 0.199219 0.519531 "/></clipPath><clipPath id="682f607787"><path d="M 7.109375 0.585938 L 19.109375 5.203125 L 12.207031 23.136719 L 0.207031 18.519531 Z M 7.109375 0.585938 "/></clipPath><clipPath id="c64c1e25a0"><rect x="0" width="20" y="0" height="24"/></clipPath><clipPath id="86ec07e22d"><path d="M 266 174 L 281 174 L 281 196 L 266 196 Z M 266 174 "/></clipPath><clipPath id="eacfe9b47d"><path d="M 273.820312 174.5625 L 280.605469 177.171875 L 273.746094 195.003906 L 266.957031 192.394531 Z M 273.820312 174.5625 "/></clipPath><clipPath id="2b0dd28748"><path d="M 0.878906 0.480469 L 14.800781 0.480469 L 14.800781 21.121094 L 0.878906 21.121094 Z M 0.878906 0.480469 "/></clipPath><clipPath id="843db02306"><path d="M 7.820312 0.5625 L 14.605469 3.171875 L 7.746094 21.003906 L 0.957031 18.394531 Z M 7.820312 0.5625 "/></clipPath><clipPath id="f43ecbe58f"><rect x="0" width="15" y="0" height="22"/></clipPath><clipPath id="ea9d5f0fee"><path d="M 277 187 L 285 187 L 285 198 L 277 198 Z M 277 187 "/></clipPath><clipPath id="4e9b6e624c"><path d="M 280.75 187.5 L 284.203125 188.964844 L 280.460938 197.773438 L 277.011719 196.308594 Z M 280.75 187.5 "/></clipPath><clipPath id="b6468df11d"><path d="M 0 0.441406 L 7.398438 0.441406 L 7.398438 11 L 0 11 Z M 0 0.441406 "/></clipPath><clipPath id="3fac7e9eb6"><path d="M 3.75 0.5 L 7.203125 1.964844 L 3.460938 10.773438 L 0.0117188 9.308594 Z M 3.75 0.5 "/></clipPath><clipPath id="b4ed0f661c"><rect x="0" width="8" y="0" height="11"/></clipPath></defs><g id="f2ebf044f6"><rect x="0" width="375" y="0" height="374.999991" style="fill:#ffffff;fill-opacity:1;stroke:none;"/><rect x="0" width="375" y="0" height="374.999991" style="fill:#fffbf4;fill-opacity:1;stroke:none;"/><g clip-rule="nonzero" clip-path="url(#b9316fda1d)"><g clip-rule="nonzero" clip-path="url(#222daf982a)"><g transform="matrix(1,0,0,1,174,88)"><g clip-path="url(#f26acff9ff)"><g clip-rule="nonzero" clip-path="url(#3b3b2841df)"><g clip-rule="nonzero" clip-path="url(#5c861bf275)"><g clip-rule="nonzero" clip-path="url(#41ad96a673)"><path style=" stroke:none;fill-rule:evenodd;fill:#9a0c4c;fill-opacity:1;" d="M 76.667969 166.195312 L 121.390625 51.945312 C 121.960938 50.554688 123.550781 49.886719 124.941406 50.460938 C 126.332031 51.03125 127 52.621094 126.429688 54.015625 L 78.125 166.792969 C 77.960938 167.195312 77.5 167.386719 77.097656 167.222656 C 76.695312 167.054688 76.503906 166.597656 76.667969 166.195312 Z M 76.667969 166.195312 "/></g></g></g><g clip-rule="nonzero" clip-path="url(#a8cfbf64a7)"><g clip-rule="nonzero" clip-path="url(#c8b4e12e40)"><g clip-rule="nonzero" clip-path="url(#f3ec917a37)"><path style=" stroke:none;fill-rule:nonzero;fill:#ffffff;fill-opacity:1;" d="M 118.085938 63.15625 C 117.808594 63.792969 117.546875 64.425781 117.292969 65.054688 C 117.039062 65.683594 116.800781 66.300781 116.578125 66.902344 C 116.355469 67.503906 116.152344 68.078125 115.972656 68.625 C 115.789062 69.175781 115.632812 69.6875 115.496094 70.160156 C 115.363281 70.636719 115.253906 71.066406 115.171875 71.449219 C 115.089844 71.835938 115.035156 72.164062 115.007812 72.441406 C 114.984375 72.71875 114.984375 72.9375 115.015625 73.097656 C 115.042969 73.257812 115.101562 73.355469 115.1875 73.394531 C 115.273438 73.429688 115.382812 73.40625 115.519531 73.316406 C 115.660156 73.230469 115.820312 73.082031 116.003906 72.875 C 116.1875 72.664062 116.390625 72.398438 116.617188 72.078125 C 116.839844 71.753906 117.078125 71.382812 117.335938 70.960938 C 117.589844 70.535156 117.855469 70.070312 118.132812 69.5625 C 118.410156 69.054688 118.691406 68.515625 118.976562 67.941406 C 119.265625 67.371094 119.550781 66.777344 119.839844 66.160156 C 120.125 65.542969 120.40625 64.917969 120.683594 64.285156 C 120.957031 63.648438 121.222656 63.015625 121.476562 62.386719 C 121.730469 61.753906 121.96875 61.140625 122.191406 60.539062 C 122.414062 59.9375 122.613281 59.363281 122.796875 58.8125 C 122.976562 58.265625 123.136719 57.753906 123.269531 57.277344 C 123.40625 56.804688 123.515625 56.375 123.597656 55.988281 C 123.679688 55.605469 123.734375 55.277344 123.757812 55 C 123.785156 54.722656 123.785156 54.503906 123.753906 54.34375 C 123.722656 54.183594 123.667969 54.082031 123.582031 54.046875 C 123.496094 54.007812 123.382812 54.035156 123.246094 54.121094 C 123.109375 54.210938 122.949219 54.359375 122.765625 54.566406 C 122.582031 54.777344 122.375 55.042969 122.152344 55.363281 C 121.929688 55.683594 121.6875 56.058594 121.433594 56.480469 C 121.179688 56.902344 120.914062 57.371094 120.636719 57.875 C 120.359375 58.382812 120.078125 58.925781 119.789062 59.496094 C 119.503906 60.070312 119.214844 60.664062 118.929688 61.28125 C 118.640625 61.894531 118.359375 62.519531 118.085938 63.15625 Z M 118.085938 63.15625 "/></g></g></g><g clip-rule="nonzero" clip-path="url(#26e317e528)"><g clip-rule="nonzero" clip-path="url(#54d68b78c2)"><g clip-rule="nonzero" clip-path="url(#7be0b3062c)"><path style=" stroke:none;fill-rule:evenodd;fill:#9a0c4c;fill-opacity:1;" d="M 159.109375 51.28125 C 159.945312 59.753906 155.96875 66.554688 149.992188 70.214844 C 144 73.882812 135.988281 74.394531 128.703125 70.289062 C 122.070312 66.546875 117.089844 61.308594 112.390625 55.792969 C 107.765625 50.367188 103.425781 44.671875 97.96875 39.957031 C 93.6875 36.261719 88.714844 33.167969 82.347656 31.320312 C 78.925781 30.324219 75.265625 29.9375 71.65625 30.195312 C 68.058594 30.449219 64.519531 31.347656 61.324219 32.929688 C 59.355469 33.90625 57.496094 35.101562 55.769531 36.464844 C 54.035156 37.832031 52.433594 39.371094 50.980469 41.03125 C 47.730469 44.738281 45.007812 49.394531 43.441406 54.355469 C 41.890625 59.257812 41.46875 64.46875 42.867188 69.335938 C 44.757812 75.957031 50.351562 80.96875 56.910156 83.472656 C 63.5 85.992188 71.085938 86.003906 77.003906 82.472656 C 80.816406 80.203125 83.617188 76.609375 85.066406 72.542969 C 86.523438 68.457031 86.617188 63.898438 84.988281 59.71875 C 83.21875 55.175781 80.054688 51.894531 76.417969 50.636719 C 72.683594 49.355469 68.472656 50.226562 64.800781 53.996094 C 64.589844 54.214844 64.246094 54.21875 64.03125 54.015625 C 63.816406 53.804688 63.808594 53.464844 64.015625 53.246094 C 68.011719 49 72.683594 48.027344 76.839844 49.378906 C 80.855469 50.683594 84.410156 54.191406 86.433594 59.136719 C 88.289062 63.667969 88.269531 68.648438 86.753906 73.128906 C 85.234375 77.628906 82.199219 81.621094 78.046875 84.183594 C 71.628906 88.132812 63.335938 88.292969 56.101562 85.625 C 48.792969 82.933594 42.601562 77.367188 40.425781 70.050781 C 38.84375 64.699219 39.214844 58.964844 40.890625 53.554688 C 42.539062 48.230469 45.457031 43.226562 48.929688 39.242188 C 50.492188 37.453125 52.21875 35.796875 54.089844 34.332031 C 55.972656 32.859375 57.996094 31.570312 60.140625 30.519531 C 63.652344 28.804688 67.535156 27.835938 71.472656 27.585938 C 75.390625 27.328125 79.363281 27.773438 83.066406 28.886719 C 89.792969 30.910156 95.027344 34.21875 99.519531 38.1875 C 105.003906 43.042969 109.355469 48.875 113.980469 54.453125 C 118.464844 59.859375 123.207031 65.035156 129.578125 68.757812 C 136.25 72.65625 143.664062 72.292969 149.257812 68.992188 C 154.910156 65.652344 158.695312 59.328125 158.046875 51.375 C 158.019531 51.082031 158.238281 50.824219 158.527344 50.796875 C 158.820312 50.773438 159.082031 50.988281 159.109375 51.28125 Z M 159.109375 51.28125 "/></g></g></g></g></g></g></g><g style="fill:#9a0c4c;fill-opacity:1;"><g transform="translate(44.6926, 213.57463)"><path style="stroke:none" d="M 6.703125 -25.40625 L 6.703125 -2.15625 L 10.546875 -0.71875 L 10.546875 0 L 1.4375 0 L 1.4375 -0.71875 L 5.265625 -2.15625 L 5.265625 -31.875 L 1.921875 -32.828125 L 1.921875 -33.546875 L 6.953125 -33.546875 C 8.640625 -33.546875 9.960938 -33.238281 10.921875 -32.625 C 11.878906 -32.019531 12.789062 -31.207031 13.65625 -30.1875 L 29 -12.21875 L 29 -31.390625 L 25.15625 -32.828125 L 25.15625 -33.546875 L 34.265625 -33.546875 L 34.265625 -32.828125 L 30.4375 -31.390625 L 30.4375 0.71875 L 29 0.71875 Z M 6.703125 -25.40625 "/></g></g><g style="fill:#9a0c4c;fill-opacity:1;"><g transform="translate(80.151934, 213.57463)"><path style="stroke:none" d="M 11.265625 0.71875 C 8.421875 0.71875 6.226562 0.113281 4.6875 -1.09375 C 3.15625 -2.3125 2.390625 -3.863281 2.390625 -5.75 C 2.390625 -7 2.660156 -8.226562 3.203125 -9.4375 C 3.429688 -10.007812 3.722656 -10.535156 4.078125 -11.015625 C 5.378906 -11.335938 6.800781 -11.628906 8.34375 -11.890625 C 11.789062 -12.460938 14.835938 -12.8125 17.484375 -12.9375 L 17.484375 -14.375 C 17.484375 -17.925781 17.050781 -20.367188 16.1875 -21.703125 C 15.332031 -23.046875 14.007812 -23.71875 12.21875 -23.71875 C 11.550781 -23.71875 10.976562 -23.640625 10.5 -23.484375 L 9.828125 -23.234375 L 9.828125 -16.046875 L 9.203125 -15.90625 C 8.691406 -15.84375 8.257812 -15.8125 7.90625 -15.8125 C 6.820312 -15.8125 5.953125 -16.140625 5.296875 -16.796875 C 4.640625 -17.453125 4.3125 -18.320312 4.3125 -19.40625 C 4.3125 -20.875 5.050781 -22.117188 6.53125 -23.140625 C 8.019531 -24.171875 10.234375 -24.6875 13.171875 -24.6875 C 15.671875 -24.6875 17.820312 -24.242188 19.625 -23.359375 C 21.425781 -22.484375 22.796875 -21.269531 23.734375 -19.71875 C 24.679688 -18.164062 25.15625 -16.382812 25.15625 -14.375 L 25.15625 -1.4375 L 28.03125 -0.71875 L 28.03125 0 L 23.71875 0 C 21.800781 0 20.316406 -0.585938 19.265625 -1.765625 C 18.816406 -2.242188 18.460938 -2.851562 18.203125 -3.59375 C 17.765625 -2.789062 17.238281 -2.070312 16.625 -1.4375 C 15.1875 0 13.398438 0.71875 11.265625 0.71875 Z M 13.171875 -0.953125 C 14.359375 -0.953125 15.429688 -1.59375 16.390625 -2.875 C 16.742188 -3.351562 17.109375 -3.992188 17.484375 -4.796875 L 17.484375 -11.734375 C 16.015625 -11.734375 14.613281 -11.65625 13.28125 -11.5 C 12.28125 -11.375 11.609375 -11.296875 11.265625 -11.265625 C 11.097656 -10.910156 10.9375 -10.429688 10.78125 -9.828125 C 10.457031 -8.609375 10.296875 -7.410156 10.296875 -6.234375 C 10.296875 -4.441406 10.566406 -3.113281 11.109375 -2.25 C 11.660156 -1.382812 12.347656 -0.953125 13.171875 -0.953125 Z M 13.171875 -0.953125 "/></g></g><g style="fill:#9a0c4c;fill-opacity:1;"><g transform="translate(109.142334, 213.57463)"><path style="stroke:none" d="M 1.4375 -22.515625 L -0.953125 -23.234375 L -0.953125 -23.96875 L 4.546875 -23.96875 C 6.242188 -23.96875 7.585938 -23.613281 8.578125 -22.90625 C 9.566406 -22.207031 10.378906 -21.203125 11.015625 -19.890625 L 16.296875 -8.859375 L 19.03125 -15.859375 L 15.8125 -22.515625 L 13.421875 -23.234375 L 13.421875 -23.96875 L 18.921875 -23.96875 C 20.617188 -23.96875 21.960938 -23.613281 22.953125 -22.90625 C 23.941406 -22.207031 24.757812 -21.203125 25.40625 -19.890625 L 30.671875 -8.859375 L 35.703125 -21.796875 L 32.109375 -23.234375 L 32.109375 -23.96875 L 40.96875 -23.96875 L 40.96875 -23.234375 L 37.140625 -21.796875 L 28.28125 0.484375 L 26.84375 0.484375 L 19.75 -14.28125 L 13.890625 0.484375 L 12.453125 0.484375 Z M 1.4375 -22.515625 "/></g></g><g style="fill:#9a0c4c;fill-opacity:1;"><g transform="translate(149.153875, 213.57463)"><path style="stroke:none" d="M 11.265625 0.71875 C 8.421875 0.71875 6.226562 0.113281 4.6875 -1.09375 C 3.15625 -2.3125 2.390625 -3.863281 2.390625 -5.75 C 2.390625 -7 2.660156 -8.226562 3.203125 -9.4375 C 3.429688 -10.007812 3.722656 -10.535156 4.078125 -11.015625 C 5.378906 -11.335938 6.800781 -11.628906 8.34375 -11.890625 C 11.789062 -12.460938 14.835938 -12.8125 17.484375 -12.9375 L 17.484375 -14.375 C 17.484375 -17.925781 17.050781 -20.367188 16.1875 -21.703125 C 15.332031 -23.046875 14.007812 -23.71875 12.21875 -23.71875 C 11.550781 -23.71875 10.976562 -23.640625 10.5 -23.484375 L 9.828125 -23.234375 L 9.828125 -16.046875 L 9.203125 -15.90625 C 8.691406 -15.84375 8.257812 -15.8125 7.90625 -15.8125 C 6.820312 -15.8125 5.953125 -16.140625 5.296875 -16.796875 C 4.640625 -17.453125 4.3125 -18.320312 4.3125 -19.40625 C 4.3125 -20.875 5.050781 -22.117188 6.53125 -23.140625 C 8.019531 -24.171875 10.234375 -24.6875 13.171875 -24.6875 C 15.671875 -24.6875 17.820312 -24.242188 19.625 -23.359375 C 21.425781 -22.484375 22.796875 -21.269531 23.734375 -19.71875 C 24.679688 -18.164062 25.15625 -16.382812 25.15625 -14.375 L 25.15625 -1.4375 L 28.03125 -0.71875 L 28.03125 0 L 23.71875 0 C 21.800781 0 20.316406 -0.585938 19.265625 -1.765625 C 18.816406 -2.242188 18.460938 -2.851562 18.203125 -3.59375 C 17.765625 -2.789062 17.238281 -2.070312 16.625 -1.4375 C 15.1875 0 13.398438 0.71875 11.265625 0.71875 Z M 13.171875 -0.953125 C 14.359375 -0.953125 15.429688 -1.59375 16.390625 -2.875 C 16.742188 -3.351562 17.109375 -3.992188 17.484375 -4.796875 L 17.484375 -11.734375 C 16.015625 -11.734375 14.613281 -11.65625 13.28125 -11.5 C 12.28125 -11.375 11.609375 -11.296875 11.265625 -11.265625 C 11.097656 -10.910156 10.9375 -10.429688 10.78125 -9.828125 C 10.457031 -8.609375 10.296875 -7.410156 10.296875 -6.234375 C 10.296875 -4.441406 10.566406 -3.113281 11.109375 -2.25 C 11.660156 -1.382812 12.347656 -0.953125 13.171875 -0.953125 Z M 13.171875 -0.953125 "/></g></g><g style="fill:#9a0c4c;fill-opacity:1;"><g transform="translate(178.144275, 213.57463)"><path style="stroke:none" d="M 11.265625 0.71875 C 8.421875 0.71875 6.226562 0.113281 4.6875 -1.09375 C 3.15625 -2.3125 2.390625 -3.863281 2.390625 -5.75 C 2.390625 -7 2.660156 -8.226562 3.203125 -9.4375 C 3.429688 -10.007812 3.722656 -10.535156 4.078125 -11.015625 C 5.378906 -11.335938 6.800781 -11.628906 8.34375 -11.890625 C 11.789062 -12.460938 14.835938 -12.8125 17.484375 -12.9375 L 17.484375 -14.375 C 17.484375 -17.925781 17.050781 -20.367188 16.1875 -21.703125 C 15.332031 -23.046875 14.007812 -23.71875 12.21875 -23.71875 C 11.550781 -23.71875 10.976562 -23.640625 10.5 -23.484375 L 9.828125 -23.234375 L 9.828125 -16.046875 L 9.203125 -15.90625 C 8.691406 -15.84375 8.257812 -15.8125 7.90625 -15.8125 C 6.820312 -15.8125 5.953125 -16.140625 5.296875 -16.796875 C 4.640625 -17.453125 4.3125 -18.320312 4.3125 -19.40625 C 4.3125 -20.875 5.050781 -22.117188 6.53125 -23.140625 C 8.019531 -24.171875 10.234375 -24.6875 13.171875 -24.6875 C 15.671875 -24.6875 17.820312 -24.242188 19.625 -23.359375 C 21.425781 -22.484375 22.796875 -21.269531 23.734375 -19.71875 C 24.679688 -18.164062 25.15625 -16.382812 25.15625 -14.375 L 25.15625 -1.4375 L 28.03125 -0.71875 L 28.03125 0 L 23.71875 0 C 21.800781 0 20.316406 -0.585938 19.265625 -1.765625 C 18.816406 -2.242188 18.460938 -2.851562 18.203125 -3.59375 C 17.765625 -2.789062 17.238281 -2.070312 16.625 -1.4375 C 15.1875 0 13.398438 0.71875 11.265625 0.71875 Z M 13.171875 -0.953125 C 14.359375 -0.953125 15.429688 -1.59375 16.390625 -2.875 C 16.742188 -3.351562 17.109375 -3.992188 17.484375 -4.796875 L 17.484375 -11.734375 C 16.015625 -11.734375 14.613281 -11.65625 13.28125 -11.5 C 12.28125 -11.375 11.609375 -11.296875 11.265625 -11.265625 C 11.097656 -10.910156 10.9375 -10.429688 10.78125 -9.828125 C 10.457031 -8.609375 10.296875 -7.410156 10.296875 -6.234375 C 10.296875 -4.441406 10.566406 -3.113281 11.109375 -2.25 C 11.660156 -1.382812 12.347656 -0.953125 13.171875 -0.953125 Z M 13.171875 -0.953125 "/></g></g><g style="fill:#9a0c4c;fill-opacity:1;"><g transform="translate(207.134676, 213.57463)"><path style="stroke:none" d="M 17.734375 0.71875 C 15.585938 0.71875 13.796875 0 12.359375 -1.4375 C 11.753906 -2.070312 11.226562 -2.789062 10.78125 -3.59375 C 10.5625 -2.894531 10.175781 -2.253906 9.625 -1.671875 C 8.414062 -0.398438 6.644531 0.234375 4.3125 0.234375 L 3.828125 0.234375 L 3.828125 -32.109375 L 0.953125 -32.828125 L 0.953125 -33.546875 L 7.1875 -33.546875 C 10.0625 -33.546875 11.5 -32.109375 11.5 -29.234375 L 11.5 -22.765625 C 12.007812 -23.179688 12.503906 -23.5 12.984375 -23.71875 C 14.140625 -24.363281 15.484375 -24.6875 17.015625 -24.6875 C 20.242188 -24.6875 22.804688 -23.585938 24.703125 -21.390625 C 26.609375 -19.203125 27.5625 -16.066406 27.5625 -11.984375 C 27.5625 -9.265625 27.128906 -6.953125 26.265625 -5.046875 C 25.398438 -3.148438 24.234375 -1.710938 22.765625 -0.734375 C 21.296875 0.234375 19.617188 0.71875 17.734375 0.71875 Z M 15.8125 -0.953125 C 16.832031 -0.953125 17.6875 -1.757812 18.375 -3.375 C 19.0625 -4.988281 19.40625 -7.859375 19.40625 -11.984375 C 19.40625 -16.296875 19.03125 -19.25 18.28125 -20.84375 C 17.53125 -22.4375 16.46875 -23.234375 15.09375 -23.234375 C 14.257812 -23.234375 13.414062 -22.914062 12.5625 -22.28125 C 12.300781 -22.09375 11.945312 -21.773438 11.5 -21.328125 L 11.5 -4.796875 C 11.789062 -4.054688 12.144531 -3.414062 12.5625 -2.875 C 13.519531 -1.59375 14.601562 -0.953125 15.8125 -0.953125 Z M 15.8125 -0.953125 "/></g></g><g style="fill:#9a0c4c;fill-opacity:1;"><g transform="translate(236.604251, 213.57463)"><path style="stroke:none" d="M 1.921875 -0.71875 L 4.796875 -1.4375 L 4.796875 -22.515625 L 1.921875 -23.234375 L 1.921875 -23.96875 L 8.140625 -23.96875 C 11.015625 -23.96875 12.453125 -22.523438 12.453125 -19.640625 L 12.453125 -1.4375 L 15.328125 -0.71875 L 15.328125 0 L 1.921875 0 Z M 8.140625 -26.84375 C 7.179688 -26.84375 6.378906 -27.160156 5.734375 -27.796875 C 5.097656 -28.429688 4.78125 -29.226562 4.78125 -30.1875 C 4.78125 -31.144531 5.097656 -31.941406 5.734375 -32.578125 C 6.378906 -33.222656 7.179688 -33.546875 8.140625 -33.546875 C 9.097656 -33.546875 9.894531 -33.222656 10.53125 -32.578125 C 11.175781 -31.941406 11.5 -31.144531 11.5 -30.1875 C 11.5 -29.226562 11.175781 -28.429688 10.53125 -27.796875 C 9.894531 -27.160156 9.097656 -26.84375 8.140625 -26.84375 Z M 8.140625 -26.84375 "/></g></g><g style="fill:#9a0c4c;fill-opacity:1;"><g transform="translate(252.896368, 213.57463)"><path style="stroke:none" d="M 7.1875 10.296875 C 5.75 10.296875 4.628906 9.910156 3.828125 9.140625 C 3.035156 8.378906 2.640625 7.328125 2.640625 5.984375 C 2.640625 4.773438 2.960938 3.832031 3.609375 3.15625 C 4.265625 2.488281 5.140625 2.15625 6.234375 2.15625 C 6.484375 2.15625 6.734375 2.175781 6.984375 2.21875 C 7.242188 2.269531 7.425781 2.296875 7.53125 2.296875 L 8.140625 2.390625 L 8.140625 8.859375 C 9.066406 8.703125 9.878906 8.191406 10.578125 7.328125 C 11.285156 6.460938 12.070312 4.976562 12.9375 2.875 L 13.890625 0.484375 L 1.4375 -22.515625 L -0.953125 -23.234375 L -0.953125 -23.96875 L 5.03125 -23.96875 C 6.695312 -23.96875 8.015625 -23.625 8.984375 -22.9375 C 9.960938 -22.25 10.800781 -21.234375 11.5 -19.890625 L 17.484375 -8.8125 L 22.515625 -21.796875 L 18.921875 -23.234375 L 18.921875 -23.96875 L 27.796875 -23.96875 L 27.796875 -23.234375 L 23.96875 -21.796875 L 14.375 2.875 C 13.351562 5.5 12.265625 7.390625 11.109375 8.546875 C 9.960938 9.710938 8.65625 10.296875 7.1875 10.296875 Z M 7.1875 10.296875 "/></g></g><g style="fill:#9a0c4c;fill-opacity:1;"><g transform="translate(279.730473, 213.57463)"><path style="stroke:none" d="M 11.265625 0.71875 C 8.421875 0.71875 6.226562 0.113281 4.6875 -1.09375 C 3.15625 -2.3125 2.390625 -3.863281 2.390625 -5.75 C 2.390625 -7 2.660156 -8.226562 3.203125 -9.4375 C 3.429688 -10.007812 3.722656 -10.535156 4.078125 -11.015625 C 5.378906 -11.335938 6.800781 -11.628906 8.34375 -11.890625 C 11.789062 -12.460938 14.835938 -12.8125 17.484375 -12.9375 L 17.484375 -14.375 C 17.484375 -17.925781 17.050781 -20.367188 16.1875 -21.703125 C 15.332031 -23.046875 14.007812 -23.71875 12.21875 -23.71875 C 11.550781 -23.71875 10.976562 -23.640625 10.5 -23.484375 L 9.828125 -23.234375 L 9.828125 -16.046875 L 9.203125 -15.90625 C 8.691406 -15.84375 8.257812 -15.8125 7.90625 -15.8125 C 6.820312 -15.8125 5.953125 -16.140625 5.296875 -16.796875 C 4.640625 -17.453125 4.3125 -18.320312 4.3125 -19.40625 C 4.3125 -20.875 5.050781 -22.117188 6.53125 -23.140625 C 8.019531 -24.171875 10.234375 -24.6875 13.171875 -24.6875 C 15.671875 -24.6875 17.820312 -24.242188 19.625 -23.359375 C 21.425781 -22.484375 22.796875 -21.269531 23.734375 -19.71875 C 24.679688 -18.164062 25.15625 -16.382812 25.15625 -14.375 L 25.15625 -1.4375 L 28.03125 -0.71875 L 28.03125 0 L 23.71875 0 C 21.800781 0 20.316406 -0.585938 19.265625 -1.765625 C 18.816406 -2.242188 18.460938 -2.851562 18.203125 -3.59375 C 17.765625 -2.789062 17.238281 -2.070312 16.625 -1.4375 C 15.1875 0 13.398438 0.71875 11.265625 0.71875 Z M 13.171875 -0.953125 C 14.359375 -0.953125 15.429688 -1.59375 16.390625 -2.875 C 16.742188 -3.351562 17.109375 -3.992188 17.484375 -4.796875 L 17.484375 -11.734375 C 16.015625 -11.734375 14.613281 -11.65625 13.28125 -11.5 C 12.28125 -11.375 11.609375 -11.296875 11.265625 -11.265625 C 11.097656 -10.910156 10.9375 -10.429688 10.78125 -9.828125 C 10.457031 -8.609375 10.296875 -7.410156 10.296875 -6.234375 C 10.296875 -4.441406 10.566406 -3.113281 11.109375 -2.25 C 11.660156 -1.382812 12.347656 -0.953125 13.171875 -0.953125 Z M 13.171875 -0.953125 "/></g></g><g style="fill:#9a0c4c;fill-opacity:1;"><g transform="translate(308.720874, 213.57463)"><path style="stroke:none" d="M 14.375 0.71875 C 12.269531 0.71875 10.441406 0.335938 8.890625 -0.421875 C 7.335938 -1.191406 6.144531 -2.25 5.3125 -3.59375 C 4.488281 -4.9375 4.078125 -6.453125 4.078125 -8.140625 L 4.078125 -22.765625 L 0.71875 -22.765625 L 0.71875 -23.96875 L 4.078125 -23.96875 L 4.078125 -26.359375 C 4.078125 -29.234375 5.515625 -30.671875 8.390625 -30.671875 L 11.734375 -30.671875 L 11.734375 -23.96875 L 18.453125 -23.96875 L 18.453125 -22.765625 L 11.734375 -22.765625 L 11.734375 -8.140625 C 11.734375 -5.203125 12.035156 -3.191406 12.640625 -2.109375 C 13.253906 -1.023438 14.148438 -0.484375 15.328125 -0.484375 C 16.484375 -0.484375 17.488281 -1.039062 18.34375 -2.15625 C 19.207031 -3.269531 19.640625 -4.785156 19.640625 -6.703125 L 20.84375 -6.703125 C 20.84375 -4.335938 20.25 -2.507812 19.0625 -1.21875 C 17.882812 0.0703125 16.320312 0.71875 14.375 0.71875 Z M 14.375 0.71875 "/></g></g><g clip-rule="nonzero" clip-path="url(#1a4d9bcafe)"><g clip-rule="nonzero" clip-path="url(#00fff286b6)"><g transform="matrix(1,0,0,1,247,209)"><g clip-path="url(#c64c1e25a0)"><g clip-rule="nonzero" clip-path="url(#d7a721197c)"><g clip-rule="nonzero" clip-path="url(#682f607787)"><path style=" stroke:none;fill-rule:nonzero;fill:#fffcee;fill-opacity:1;" d="M 7.109375 0.585938 L 19.109375 5.203125 L 12.199219 23.152344 L 0.203125 18.535156 Z M 7.109375 0.585938 "/></g></g></g></g></g></g><g clip-rule="nonzero" clip-path="url(#86ec07e22d)"><g clip-rule="nonzero" clip-path="url(#eacfe9b47d)"><g transform="matrix(1,0,0,1,266,174)"><g clip-path="url(#f43ecbe58f)"><g clip-rule="nonzero" clip-path="url(#2b0dd28748)"><g clip-rule="nonzero" clip-path="url(#843db02306)"><path style=" stroke:none;fill-rule:nonzero;fill:#fffcee;fill-opacity:1;" d="M 7.820312 0.5625 L 14.605469 3.171875 L 7.738281 21.015625 L 0.953125 18.40625 Z M 7.820312 0.5625 "/></g></g></g></g></g></g><g clip-rule="nonzero" clip-path="url(#ea9d5f0fee)"><g clip-rule="nonzero" clip-path="url(#4e9b6e624c)"><g transform="matrix(1,0,0,1,277,187)"><g clip-path="url(#b4ed0f661c)"><g clip-rule="nonzero" clip-path="url(#b6468df11d)"><g clip-rule="nonzero" clip-path="url(#3fac7e9eb6)"><path style=" stroke:none;fill-rule:nonzero;fill:#fffcee;fill-opacity:1;" d="M 3.75 0.5 L 7.203125 1.964844 L 3.464844 10.769531 L 0.0117188 9.304688 Z M 3.75 0.5 "/></g></g></g></g></g></g></g></svg>